
<svg xmlns="http://www.w3.org/2000/svg"><g fill="#313B72"><path d="m0 52.38 11.42-11.64a16.44 16.44 0 0 1 3.81-3.13l-2.3 29.47a18.63 18.63 0 0 1-1.76-1.52c-3-3.41-5.86-6.85-8.81-10.26-.72-.83-1.57-1.55-2.36-2.33zm23.09 19.66c1.17.36 2.21.75 3.29 1a60.74 60.74 0 0 1 20.23 8.37c2.43 1.6 4.19 1.47 6.53-.16 5.87-4.11 12.73-5.94 19.5-7.92 1.34-.39 2.67-.81 4-1.23 0-1.47.08-2.78 0-4.08q-1-15.2-2.09-30.4c-.15-2.16-.32-4.32-.49-6.47a6.34 6.34 0 0 0-8.8-5.45 17.57 17.57 0 0 0-7.35 6c-3.18 4.32-6.17 8.77-9.25 13.16Q39.86 57.47 31 70.05c-.54.76-1.16 1.46-1.87 2.33l-5-1c.37-4.45 0-8.74 2.52-12.82 7-11.25 14-22.55 22.49-32.8 1.32-1.59 2.75-3.08 4.15-4.61a21.49 21.49 0 0 1 13.49-7 54.11 54.11 0 0 1 14.83.41c.29 3.64.6 7.18.85 10.72q1.91 26.65 3.79 53.28c.2 2.69-.67 4.13-3.27 4.23-10.98.42-20.14 5.64-29.49 10.48-1.16.61-2.29 1.29-3.27 1.85-5.91-2.86-11.62-5.74-17.43-8.4a38.07 38.07 0 0 0-15.21-3.84c-3.18-.07-4.19-1.29-4-4.48.59-9 1.25-18 1.89-27l2-28.44c.2-2.71.43-5.42.63-8.09 13.2-3 24.58.27 30.08 8.58-.92 1.25-1.89 2.61-2.89 3.94s-2 2.69-3.18 4.18c-.71-.63-1.31-1.19-1.93-1.72-1-.85-2-1.72-3.05-2.51-2.36-1.77-4.89-3-7.84-1.52s-3.68 3.94-3.85 7c-.72 12.21-1.58 24.41-2.38 36.61-.06.8.03 1.63.03 2.61z"/><path d="m31.53 73.11 18.53-26.55 18.48 26.49a11.38 11.38 0 0 1-1.44.75 83.58 83.58 0 0 0-15.47 6.76 2.46 2.46 0 0 1-2.87.15c-4.85-3.14-10.25-5.1-15.7-6.91-.43-.12-.82-.36-1.53-.69zm19.55-28.22 6.86-9.59c1.06 1.51 2 2.78 2.86 4.11 4.08 6.43 8.08 12.91 12.2 19.29a12.52 12.52 0 0 1 2.43 7c0 1.85.23 3.71.37 5.79l-5.33.87zm-.66-23.63-13.09-8.7L50.14 0l12.4 13.38a27.13 27.13 0 0 0-12.12 7.88zm34.92 15.95L100 52.38 87.74 66.66l-.63-.21q-1.15-14.52-2.32-29z"/></g></svg>